<?xml version="1.0" encoding="UTF-8" standalone="no"?>
<!-- Created with Inkscape (http://www.inkscape.org/) -->

<svg
   version="1.1"
   id="svg1"
   width="7680"
   height="7680"
   viewBox="0 0 7680 7680"
   sodipodi:docname="cirfpro-logo.png"
   inkscape:export-filename="cirfpro-logo2.png"
   inkscape:export-xdpi="96"
   inkscape:export-ydpi="96"
   xmlns:inkscape="http://www.inkscape.org/namespaces/inkscape"
   xmlns:sodipodi="http://sodipodi.sourceforge.net/DTD/sodipodi-0.dtd"
   xmlns="http://www.w3.org/2000/svg"
   xmlns:svg="http://www.w3.org/2000/svg">
  <defs
     id="defs1" />
  <sodipodi:namedview
     id="namedview1"
     pagecolor="#ffffff"
     bordercolor="#000000"
     borderopacity="0.25"
     inkscape:showpageshadow="2"
     inkscape:pageopacity="0.0"
     inkscape:pagecheckerboard="0"
     inkscape:deskcolor="#d1d1d1"
     inkscape:export-bgcolor="#ffffff00">
    <inkscape:page
       x="0"
       y="0"
       width="7680"
       height="7680"
       id="page2"
       margin="0"
       bleed="0" />
  </sodipodi:namedview>
  <g
     inkscape:groupmode="layer"
     inkscape:label="Image"
     id="g1">
    <path
       id="path35"
       style="opacity:0;fill:none;fill-opacity:1;stroke:none;stroke-width:7.9163"
       d="M 3.9589844,3.9589844 V 3839.4043 7674.8496 H 3839.4043 7674.8496 V 3919.4473 c -24.124,17.9393 -55.3626,33.103 -77.9062,42.9355 -65.547,28.5887 -135.3428,45.9238 -205.4258,58.9082 -67.6247,7.3287 -79.6288,11.6935 -146.7715,7.2188 -107.1387,-7.1402 -210.7505,-39.6089 -314.5215,-64.3731 -143.8339,-40.4124 -293.2104,-80.0166 -421.916,-158.8594 -92.3908,-56.597 -101.1285,-75.0565 -176.6504,-152.1054 -69.3859,-97.0127 -88.4899,-113.4288 -137.6426,-226.2735 -66.4831,-152.6318 -106.7191,-326.4136 -117.166,-492.2871 -4.138,-65.7029 -0.1091,-131.6668 -0.1641,-197.5 35.8499,-156.8106 45.2741,-210.7907 92.7129,-365.9218 17.855,-58.3883 37.285,-116.3201 58.3223,-173.6387 37.8765,-103.1988 84.5459,-203.1074 126.9082,-304.4766 30.2173,-72.3074 105.6783,-59.7494 77.9922,13.5645 -40.8246,108.1048 -91.7298,212.1294 -131.5371,320.6523 -20.4681,55.8 -39.2957,112.2235 -56.6328,169.0742 -46.3758,152.0734 -55.5069,204.5955 -90.5899,358.3731 0.7169,59.7958 -2.1256,119.7396 2.1504,179.3867 11.3705,158.6096 48.2452,319.7201 112.3477,465.5703 45.4909,103.5041 63.4966,118.9291 127.541,207.2188 24.9016,24.9746 47.7738,52.1526 74.7051,74.9238 132.8869,112.36 317.0061,160.0987 481.0117,206.0801 99.8779,23.5487 199.4972,55.473 302.6152,62 57.78,3.6573 70.482,-0.5286 128.4531,-7.2969 63.4863,-12.2486 126.8098,-28.024 186.1602,-54.2481 23.7312,-10.4857 63.3082,-29.5876 80.0098,-52.33 9.0487,-12.3216 12.1143,-28.0715 18.1718,-42.1075 2.464,-9.7404 5.2067,-19.4181 7.8223,-29.125 V 2095.9961 c -8.9898,-18.5104 -19.2009,-36.4613 -28.4277,-54.8633 -36.7947,-51.3514 -45.2612,-71.8807 -96.8047,-109.6699 -56.0966,-41.1272 -105.4395,-57.5985 -172.0938,-80.5156 -90.2767,-31.039 -142.5654,-43.3776 -234.5918,-68.0743 -118.857,-27.9111 -237.6776,-58.0389 -358.2304,-78.08 -47.5256,-7.9008 -62.6309,-8.3714 -108.6035,-12.3223 -13.0861,-0.1971 -26.1736,-0.3947 -39.2598,-0.5918 -78.3585,-1.1804 -76.9675,-80.6862 1.3848,-79.1504 14.9104,0.2922 29.82,0.5828 44.7304,0.875 50.2218,4.4125 64.7058,4.7947 116.6426,13.4395 122.4536,20.3822 243.1503,50.9818 363.875,79.3789 88.9423,23.9199 155.4621,40.0333 242.6211,70.6972 78.2453,27.5279 132.584,46.8174 197.7383,96.6563 35.1724,26.9047 53.4462,46.6637 71.0195,70.5527 V 3.9589844 H 3839.4043 Z M 3858.043,1683.832 c 56.3786,1.1355 112.6034,6.0179 168.2168,14.8164 209.0594,33.075 425.4377,124.7157 605.4218,256.4102 84.3292,61.7037 216.9353,197.5704 282.4493,289.3965 101.7283,142.5849 196.042,361.8765 223.5976,519.8926 49.1298,281.7308 23.277,533.2614 -80.0723,779.0664 -191.7911,456.1554 -617.7213,766.9656 -1115.7597,814.1933 -177.151,16.7988 -343.3505,-1.2458 -515.0156,-55.916 -498.9352,-158.896 -847.2291,-569.0472 -930.3594,-1095.5918 -15.631,-99.0066 -11.8016,-299.5092 7.8144,-409.1211 42.3779,-236.8044 145.9919,-456.3536 304.3203,-644.8301 252.5593,-300.6499 654.7361,-476.2649 1049.3868,-468.3164 z M 425.19336,2281.6367 c 22.7845,-0.2962 41.93937,24.0048 30.15625,66.4824 -2.113,7.6172 -3.84984,15.3492 -6.33984,22.8516 -26.69712,80.4394 -2.9597,-0.8525 -32.62696,92.25 -8.29224,26.0229 -16.25009,53.181 -22.98828,80.3594 13.55418,-12.3112 27.32545,-24.3897 41.27149,-36.2578 23.80004,-18.1515 47.83816,-39.3328 76.34765,-50.3985 49.77558,-19.32 93.38628,-1.7445 141.95703,10.9258 47.6062,15.4167 95.32619,31.0287 139.4043,55.2676 46.33497,25.4799 84.49984,60.0606 121.00586,97.9121 46.23654,48.9672 120.27544,126.6343 133.24024,194.7617 3.4841,18.3078 2.9521,37.607 -0.5762,55.9063 -2.3129,11.9954 -11.0079,21.8124 -16.5117,32.7187 -23.3366,32.7162 -26.1241,40.9504 -58.36914,67.4727 -55.18364,45.3898 -122.9398,71.7846 -190.20703,93.0937 -16.85777,3.8537 -33.45764,9.0875 -50.57226,11.5625 -57.94589,8.3796 -141.5144,-5.9515 -195.07813,-27.2187 -19.93154,-7.9137 -38.46589,-18.9717 -57.69922,-28.4571 -18.19891,-13.5478 -37.58506,-25.632 -54.59765,-40.6425 -35.08992,-30.9605 -71.80666,-73.8176 -93.47461,-115.4239 -18.98391,-36.4524 -29.576,-72.8562 -34.3418,-110.2109 -40.60569,19.4168 -74.41257,-23.067 -33.99805,-72.7637 11.1743,-13.7407 22.68089,-27.1884 34.48438,-40.3652 3.39266,-23.1583 6.03395,-46.4449 10.42187,-69.4336 8.60285,-45.0711 21.54271,-91.0457 35.49024,-134.752 32.7928,-102.7603 4.78643,-9.3635 31.16601,-87.5742 2.18159,-6.4681 3.6888,-13.1427 5.53321,-19.7148 9.26411,-33.0104 29.18106,-48.1212 46.90234,-48.3516 z m 128.91992,244.5137 c -3.30435,-0.1211 -6.42128,5e-4 -9.28516,0.4277 -11.49189,1.7145 -56.02895,38.8905 -61.77539,43.3985 -38.71588,33.3599 -76.22969,68.2115 -111.19726,105.4472 -3.75087,56.2856 2.90665,109.4968 31.4043,160.541 16.73429,29.974 50.36371,66.7066 76.19726,88.7598 14.02897,11.976 29.95985,21.5258 44.93945,32.2891 15.0602,6.9837 29.61497,15.1787 45.17969,20.9511 41.85909,15.524 111.35223,27.151 156.09961,19.5567 12.46437,-2.1154 24.48063,-6.3294 36.7207,-9.4942 65.28728,-22.1168 141.42933,-49.5347 186.45508,-104.957 5.94743,-7.3208 10.36282,-15.7615 15.54492,-23.6426 3.51758,-7.5155 9.77403,-14.2854 10.55274,-22.5468 0.48193,-5.113 -4.7798,-9.0916 -7.14063,-13.6524 -5.04879,-9.7536 -9.36997,-19.914 -15.08789,-29.291 -26.9266,-44.1577 -61.33957,-81.2025 -96.79492,-118.4492 -17.16552,-16.6056 -48.88054,-48.6085 -68.99414,-63.2285 -46.71664,-33.9571 -103.99474,-51.6442 -158.26172,-69.0684 -19.10551,-3.4293 -51.42616,-16.1933 -74.55664,-17.041 z M 3714.7168,4549.6816 c 66.961,-2.6142 102.8182,-0.1042 144.543,10.1211 30.5198,7.4792 57.1626,16.3055 59.207,19.6133 4.1221,6.6697 -26.1794,103.1569 -35.707,113.6992 -3.3138,3.6669 -33.5333,0.5463 -67.1543,-6.9336 -106.7906,-23.7586 -172.4851,-4.5937 -209.8809,61.2266 -16.6253,29.2622 -19.7556,46.5252 -22.3223,123.0938 l -2.9863,89.0585 h 119.9317 119.9316 l -2.3125,61.3516 -2.3106,61.3516 -116.6972,2.1894 -116.6953,2.1914 -2.0489,421.3301 -2.0488,421.332 -77.1836,2.2657 -77.1836,2.2656 v -423.8086 -423.8086 h -87.4922 -87.4941 l 2.3926,-41.1328 2.3926,-41.1348 83.1211,-24.248 83.121,-24.25 4.9395,-90.9649 c 6.8788,-126.7192 28.9676,-186.2846 91.5371,-246.834 49.8241,-48.2155 95.8065,-63.9691 198.4004,-67.9746 z m -1446.252,51.1602 c 9.5922,0.051 19.2237,1.5658 28.4844,4.668 42.6829,14.298 62.1983,45.191 61.6836,97.6445 -0.3658,37.2892 -3.7213,46.5064 -24.4883,67.2734 -45.1078,45.1079 -123.8444,34.7211 -146.5058,-19.3261 -15.1894,-36.2269 -12.0887,-89.2569 6.7011,-114.5801 16.9324,-22.82 45.3485,-35.8343 74.125,-35.6797 z m -619.5253,19.6523 c 38.9499,0.6958 78.7908,3.973 118.9492,9.9004 72.6821,10.728 223.0605,53.8465 223.0605,63.959 0,1.347 -14.5219,32.7102 -32.2695,69.6973 l -32.2676,67.25 -48.6211,-19.7578 c -162.4006,-65.9893 -325.2356,-67.5298 -455.1894,-4.3086 -172.7128,84.0231 -269.2298,313.1247 -239.2598,567.9316 17.0895,145.2959 61.5676,246.5956 141.9316,323.25 56.4058,53.802 124.1234,87.6925 201.3633,100.7754 82.4141,13.9592 235.2845,4.6628 331.9336,-20.1855 42.572,-10.9451 79.0865,-19.9004 81.1426,-19.9004 2.0561,0 3.7383,30.357 3.7383,67.459 0,78.3982 5.6217,72.9831 -102.9121,99.1308 -89.5369,21.5709 -287.5348,27.8944 -371.6465,11.8692 -300.5368,-57.2587 -454.4353,-278.6973 -454.1328,-653.4356 0.1142,-141.4371 18.5131,-237.6398 63.7851,-333.5137 60.1776,-127.4397 138.1842,-208.2233 259.3086,-268.539 85.3961,-42.5244 194.2362,-63.6695 311.086,-61.5821 z m 2792.1035,323.2344 c 153.5394,0 269.6031,65.7868 336.0683,190.4883 74.4966,139.77 84.5932,412.4403 21.0606,568.7949 -25.0437,61.633 -76.0702,135.5508 -114.6856,166.1348 -88.4056,70.0186 -225.7611,96.7113 -348.6269,67.75 -68.166,-16.0677 -119.8368,-45.496 -165.0352,-93.9942 l -37.5176,-40.2558 2.5235,279.0488 2.5215,279.0488 h -75.7481 -75.748 v -700.5918 -700.5918 h 62.3418 c 71.0745,0 65.3182,-6.9981 76.6269,93.1622 l 5.6035,49.625 23.4785,-31.9278 c 59.2927,-80.6254 163.6989,-126.6914 287.1368,-126.6914 z m 1768.9765,0.1172 c 134.7823,0.2088 232.7192,36.2695 311.5743,114.7227 83.7299,83.3032 129.1375,195.835 137.5664,340.9355 10.5302,181.2721 -40.128,338.4043 -140.9434,437.1875 -44.7206,43.8192 -84.7149,66.8602 -153.5137,88.4414 -62.882,19.7251 -191.763,27.8906 -249.3633,15.7988 -91.7799,-19.2668 -164.7483,-60.9474 -228.1601,-130.33 -82.9145,-90.7217 -115.4414,-194.4502 -115.4414,-368.1465 0,-185.519 34.1297,-285.9055 129.2344,-380.127 83.9967,-83.2166 176.5203,-118.6878 309.0468,-118.4824 z m -3099.5136,0.8906 c 44.0498,0.21 83.809,3.8774 90.1972,10.8653 4.3831,4.7946 3.6836,34.451 -1.7734,75.205 l -9.0098,67.2891 -23.5742,-3.959 c -12.9663,-2.1769 -53.8546,-3.957 -90.8633,-3.957 -57.502,0 -73.7848,3.1895 -111.9492,21.9316 -82.9503,40.7357 -140.0339,123.5697 -156.7305,227.4317 -4.5792,28.4847 -8.299,172.4951 -8.332,322.5879 l -0.059,271.1347 h -79.1641 -79.1621 v -486.8535 -486.8516 h 66.6582 66.6582 l 4.9805,53.4356 c 2.7395,29.3892 6.8943,66.7664 9.2324,83.0605 l 4.25,29.625 34.2266,-46.4902 c 41.5311,-56.416 111.1789,-107.9154 168.4766,-124.5723 23.5467,-6.8452 71.8876,-10.0928 115.9375,-9.8828 z m 2428.2636,2.9492 c 55.1502,0 102.7477,2.4742 105.7715,5.4981 3.0239,3.0238 1.1715,35.97 -4.1152,73.2129 l -9.6113,67.7129 -76.3692,-4.8028 c -65.9379,-4.1469 -82.372,-2.5248 -120.3301,11.875 -80.5196,30.5459 -134.4966,84.0296 -167.414,165.8848 -17.368,43.1887 -18.1471,55.6655 -22.0586,353.5039 l -4.0528,308.7363 -77.1855,2.2657 -77.1836,2.2656 v -487.459 -487.459 l 65.3105,2.2989 65.3086,2.2988 7.9161,86.8672 c 6.9008,75.724 9.0904,84.2636 17.0722,66.5605 17.2528,-38.2654 96.3104,-114.8426 146.8594,-142.2519 49.2232,-26.6902 50.989,-27.0079 150.082,-27.0079 z m -3349.914,11.875 h 79.2246 79.2246 l -2.041,484.8731 -2.0391,484.873 -77.1836,2.2657 -77.1855,2.2656 v -487.1387 z" />
    <path
       style="opacity:0;fill:#ffffff;fill-opacity:1;stroke:none;stroke-width:7.9163"
       d="M 3.9581487,3839.4043 V 3.9581487 H 3839.4043 7674.8504 V 3839.4043 7674.8504 H 3839.4043 3.9581487 Z M 4134.8293,6081.6955 l -2.522,-279.0494 37.5167,40.2558 c 45.1984,48.4982 96.8687,77.9267 165.0347,93.9944 122.8658,28.9613 260.2212,2.2684 348.6268,-67.7502 38.6154,-30.584 89.6423,-104.5018 114.686,-166.1348 63.5326,-156.3546 53.4369,-429.0252 -21.0597,-568.7952 -66.4652,-124.7015 -182.5295,-190.4883 -336.0689,-190.4883 -123.4379,0 -227.8433,46.0663 -287.1359,126.6917 l -23.4797,31.9274 -5.6027,-49.6234 c -11.3087,-100.1603 -5.5535,-93.1631 -76.628,-93.1631 h -62.3408 v 700.5923 700.5923 h 75.7477 75.7477 z M 1840.5392,5925.6951 c 108.5338,-26.1477 102.9118,-20.7322 102.9118,-99.1304 0,-37.102 -1.6823,-67.4583 -3.7384,-67.4583 -2.0561,0 -38.57,8.9552 -81.142,19.9003 -96.6491,24.8483 -249.5191,34.1444 -331.9332,20.1852 -77.2399,-13.0829 -144.9572,-46.973 -201.363,-100.775 -80.364,-76.6544 -124.843,-177.955 -141.9325,-323.2509 -29.97,-254.8069 66.5465,-483.9089 239.2593,-567.932 129.9538,-63.2212 292.7893,-61.6795 455.1899,4.3098 l 48.621,19.7565 32.2683,-67.2491 c 17.7476,-36.9871 32.2684,-68.3513 32.2684,-69.6983 0,-10.1125 -150.3789,-53.2312 -223.061,-63.9592 -160.6336,-23.7097 -316.172,-5.0169 -430.0335,51.6822 -121.1244,60.3157 -199.1312,141.0992 -259.3088,268.5389 -45.272,95.8739 -63.671,192.0767 -63.7852,333.5138 -0.3025,374.7383 153.5956,596.1772 454.1324,653.4359 84.1117,16.0252 282.1096,9.7015 371.6465,-11.8694 z m 4524.164,-0.5624 c 68.7988,-21.5812 108.7939,-44.623 153.5145,-88.4422 100.8154,-98.7832 151.472,-255.9149 140.9418,-437.187 -8.4289,-145.1005 -53.8348,-257.6325 -137.5649,-340.9357 -78.8551,-78.4532 -176.7928,-114.5142 -311.5751,-114.723 -132.5265,-0.2054 -225.0506,35.2669 -309.0473,118.4835 -95.1047,94.2215 -129.2333,194.6072 -129.2333,380.1262 0,173.6963 32.5265,277.4248 115.441,368.1465 63.4118,69.3826 136.38,111.0639 228.1599,130.3307 57.6003,12.0918 186.4814,3.9261 249.3634,-15.799 z m -4019.4392,-480.6991 2.0399,-484.8732 h -79.2238 -79.2238 v 487.1389 487.139 l 77.1839,-2.2658 77.1839,-2.2657 z m 453.2069,217.6982 c 0.033,-150.0928 3.7527,-294.1044 8.3319,-322.5891 16.6966,-103.862 73.7801,-186.6958 156.7304,-227.4315 38.1644,-18.7421 54.4464,-21.9319 111.9484,-21.9319 37.0087,0 77.8973,1.7812 90.8636,3.9581 l 23.5752,3.9582 9.0102,-67.2885 c 5.457,-40.754 6.1563,-70.4103 1.7732,-75.2049 -12.7765,-13.9758 -159.041,-14.6731 -206.1345,-0.9827 -57.2977,16.6569 -126.9473,68.155 -168.4784,124.571 l -34.2249,46.4912 -4.2511,-29.6257 c -2.3381,-16.2941 -6.4925,-53.6714 -9.232,-83.0606 l -4.9808,-53.435 h -66.6584 -66.6585 v 486.8523 486.8523 h 79.163 79.163 z m 781.7439,-154.1566 2.0483,-421.3316 116.6962,-2.1903 116.6961,-2.1903 2.312,-61.3513 2.3121,-61.3513 h -119.9318 -119.9318 l 2.9855,-89.0584 c 2.5667,-76.5686 5.6973,-93.8315 22.3226,-123.0937 37.3958,-65.8203 103.0907,-84.9846 209.8813,-61.226 33.621,7.4799 63.8406,10.5997 67.1544,6.9328 9.5276,-10.5423 39.8296,-107.0293 35.7075,-113.699 -2.0444,-3.3078 -28.6878,-12.1337 -59.2076,-19.6129 -41.7248,-10.2253 -77.5819,-12.7361 -144.5429,-10.1219 -102.5939,4.0055 -148.5759,19.7597 -198.4,67.9752 -62.5695,60.5493 -84.6595,120.1155 -91.5383,246.8347 l -4.9379,90.9639 -83.1211,24.2492 -83.1211,24.2492 -2.3928,41.1338 -2.3928,41.1338 h 87.493 87.493 v 423.8086 423.8086 l 77.1839,-2.2658 77.1839,-2.2657 z m 1664.4287,112.596 c 3.9115,-297.8384 4.6901,-310.3158 22.0581,-353.5045 32.9174,-81.8552 86.8942,-135.339 167.4138,-165.8849 37.9581,-14.3998 54.3928,-16.0216 120.3307,-11.8747 l 76.3682,4.8029 9.6119,-67.7141 c 5.2867,-37.2429 7.1381,-70.1883 4.1142,-73.2121 -3.0238,-3.0239 -50.6207,-5.4979 -105.7709,-5.4979 -99.093,0 -100.8593,0.3179 -150.0825,27.0081 -50.549,27.4093 -129.6052,103.985 -146.858,142.2504 -7.9818,17.7031 -10.1719,9.1652 -17.0727,-66.5588 l -7.9163,-86.8671 -65.3094,-2.2992 -65.3095,-2.2992 v 487.4591 487.4591 l 77.1839,-2.2658 77.1839,-2.2657 z M 2334.1446,4770.4279 c 20.767,-20.767 24.1223,-29.9847 24.4881,-67.2739 0.5147,-52.4535 -19.0005,-83.3456 -61.6834,-97.6436 -37.0428,-12.4087 -80.0325,0.5837 -102.609,31.0103 -18.7898,25.3232 -21.8918,78.3549 -6.7024,114.5818 22.6614,54.0472 101.3989,64.4333 146.5067,19.3254 z M 3941.8974,4357.607 c 498.0384,-47.2277 923.9679,-358.0376 1115.7591,-814.193 103.3491,-245.805 129.201,-497.3354 80.0712,-779.0662 -27.5556,-158.0161 -121.8695,-377.3072 -223.5978,-519.8921 -65.514,-91.8261 -198.1188,-227.6935 -282.448,-289.3972 -179.9841,-131.6945 -396.3622,-223.336 -605.4216,-256.411 -444.9068,-70.3882 -928.9645,109.9008 -1217.6035,453.5007 -158.3285,188.4765 -261.942,408.0252 -304.3199,644.8296 -19.616,109.6119 -23.4458,310.1161 -7.8148,409.1227 83.1303,526.5446 431.4234,936.6945 930.3586,1095.5905 171.6651,54.6702 337.8657,72.7148 515.0167,55.916 z"
       id="path38" />
    <path
       style="opacity:0;fill:#ffffff;fill-opacity:1;stroke:none;stroke-width:7.9163"
       d="m 4303.9533,5799.9082 c -111.3132,-39.616 -161.7648,-152.1193 -162.0736,-361.4118 -0.3076,-208.4537 48.2591,-308.3648 169.4652,-348.623 53.9763,-17.928 172.4744,-13.4818 216.5147,8.1239 98.6801,48.4114 148.6833,164.2548 148.6833,344.4572 0,179.6934 -50.6856,299.7918 -147.8807,350.3998 -46.4106,24.1653 -166.0746,27.9217 -224.7089,7.0539 z"
       id="path39" />
    <path
       style="opacity:1;fill:none;fill-opacity:1;stroke:none;stroke-width:7.9163"
       d="m 4369.9929,3530.0006 c -34.5361,-96.5004 -40.1776,-107.1422 -54.9648,-103.6823 -9.0632,2.1206 -52.1019,13.6601 -95.6415,25.6433 -72.4409,19.9376 -91.599,21.8516 -225.6145,22.5403 -165.2924,0.8495 -210.1943,-5.6927 -348.3171,-50.7498 -118.7553,-38.7391 -211.7343,-83.5858 -311.1968,-150.0999 -172.0239,-115.0385 -306.1929,-259.0044 -403.7726,-433.2559 -44.9364,-80.2446 -103.5634,-218.5557 -98.7551,-232.9805 1.5051,-4.5155 15.9938,11.0389 32.197,34.5652 37.2583,54.0975 144.4278,158.2843 211.7467,205.8535 143.4261,101.3484 316.0111,170.9686 498.44,201.0689 98.5749,16.2647 289.7256,15.9363 384.0345,-0.6596 92.553,-16.2869 209.7819,-51.8717 209.7819,-63.6793 0,-5.0921 -16.0305,-52.8481 -35.6233,-106.1244 -19.5928,-53.2763 -35.6233,-100.0458 -35.6233,-103.9322 0,-3.8864 54.3255,19.0328 120.7235,50.9315 185.3804,89.0602 452.839,219.7901 456.3511,223.058 1.7288,1.6085 -35.1807,89.3811 -82.021,195.0501 -46.8402,105.6691 -105.252,237.4584 -129.8038,292.865 -24.552,55.4067 -46.6231,100.8265 -49.0472,100.9328 -2.424,0.1064 -21.7262,-48.1987 -42.8937,-107.3447 z"
       id="path40" />
    <path
       style="opacity:1;fill:none;fill-opacity:1;stroke:none;stroke-width:7.9163"
       d="m 4369.9929,3530.0006 c -34.5361,-96.5004 -40.1776,-107.1422 -54.9648,-103.6823 -9.0632,2.1206 -52.1019,13.6601 -95.6415,25.6433 -72.4409,19.9376 -91.599,21.8516 -225.6145,22.5403 -165.2924,0.8495 -210.1943,-5.6927 -348.3171,-50.7498 -118.7553,-38.7391 -211.7343,-83.5858 -311.1968,-150.0999 -172.0239,-115.0385 -306.1929,-259.0044 -403.7726,-433.2559 -44.9364,-80.2446 -103.5634,-218.5557 -98.7551,-232.9805 1.5051,-4.5155 15.9938,11.0389 32.197,34.5652 37.2583,54.0975 144.4278,158.2843 211.7467,205.8535 143.4261,101.3484 316.0111,170.9686 498.44,201.0689 98.5749,16.2647 289.7256,15.9363 384.0345,-0.6596 92.553,-16.2869 209.7819,-51.8717 209.7819,-63.6793 0,-5.0921 -16.0305,-52.8481 -35.6233,-106.1244 -19.5928,-53.2763 -35.6233,-100.0458 -35.6233,-103.9322 0,-3.8864 54.3255,19.0328 120.7235,50.9315 185.3804,89.0602 452.839,219.7901 456.3511,223.058 1.7288,1.6085 -35.1807,89.3811 -82.021,195.0501 -46.8402,105.6691 -105.252,237.4584 -129.8038,292.865 -24.552,55.4067 -46.6231,100.8265 -49.0472,100.9328 -2.424,0.1064 -21.7262,-48.1987 -42.8937,-107.3447 z"
       id="path41" />
    <path
       style="opacity:1;fill:none;fill-opacity:1;stroke:none;stroke-width:7.9163"
       d="M 3.9581487,3839.4043 V 3.9581487 H 3839.4043 7674.8504 V 3839.4043 7674.8504 H 3839.4043 3.9581487 Z M 4134.8293,6081.6955 l -2.522,-279.0494 37.5167,40.2558 c 45.1984,48.4982 96.8687,77.9267 165.0347,93.9944 122.8658,28.9613 260.2212,2.2684 348.6268,-67.7502 38.6154,-30.584 89.6423,-104.5018 114.686,-166.1348 63.5326,-156.3546 53.4369,-429.0252 -21.0597,-568.7952 -66.4652,-124.7015 -182.5295,-190.4883 -336.0689,-190.4883 -123.4379,0 -227.8433,46.0663 -287.1359,126.6917 l -23.4797,31.9274 -5.6027,-49.6234 c -11.3087,-100.1603 -5.5535,-93.1631 -76.628,-93.1631 h -62.3408 v 700.5923 700.5923 h 75.7477 75.7477 z M 1840.5392,5925.6951 c 108.5338,-26.1477 102.9118,-20.7322 102.9118,-99.1304 0,-37.102 -1.6823,-67.4583 -3.7384,-67.4583 -2.0561,0 -38.57,8.9552 -81.142,19.9003 -96.6491,24.8483 -249.5191,34.1444 -331.9332,20.1852 -77.2399,-13.0829 -144.9572,-46.973 -201.363,-100.775 -80.364,-76.6544 -124.843,-177.955 -141.9325,-323.2509 -29.97,-254.8069 66.5465,-483.9089 239.2593,-567.932 129.9538,-63.2212 292.7893,-61.6795 455.1899,4.3098 l 48.621,19.7565 32.2683,-67.2491 c 17.7476,-36.9871 32.2684,-68.3513 32.2684,-69.6983 0,-10.1125 -150.3789,-53.2312 -223.061,-63.9592 -160.6336,-23.7097 -316.172,-5.0169 -430.0335,51.6822 -121.1244,60.3157 -199.1312,141.0992 -259.3088,268.5389 -45.272,95.8739 -63.671,192.0767 -63.7852,333.5138 -0.3025,374.7383 153.5956,596.1772 454.1324,653.4359 84.1117,16.0252 282.1096,9.7015 371.6465,-11.8694 z m 4524.164,-0.5624 c 68.7988,-21.5812 108.7939,-44.623 153.5145,-88.4422 100.8154,-98.7832 151.472,-255.9149 140.9418,-437.187 -8.4289,-145.1005 -53.8348,-257.6325 -137.5649,-340.9357 -78.8551,-78.4532 -176.7928,-114.5142 -311.5751,-114.723 -132.5265,-0.2054 -225.0506,35.2669 -309.0473,118.4835 -95.1047,94.2215 -129.2333,194.6072 -129.2333,380.1262 0,173.6963 32.5265,277.4248 115.441,368.1465 63.4118,69.3826 136.38,111.0639 228.1599,130.3307 57.6003,12.0918 186.4814,3.9261 249.3634,-15.799 z m -4019.4392,-480.6991 2.0399,-484.8732 h -79.2238 -79.2238 v 487.1389 487.139 l 77.1839,-2.2658 77.1839,-2.2657 z m 453.2069,217.6982 c 0.033,-150.0928 3.7527,-294.1044 8.3319,-322.5891 16.6966,-103.862 73.7801,-186.6958 156.7304,-227.4315 38.1644,-18.7421 54.4464,-21.9319 111.9484,-21.9319 37.0087,0 77.8973,1.7812 90.8636,3.9581 l 23.5752,3.9582 9.0102,-67.2885 c 5.457,-40.754 6.1563,-70.4103 1.7732,-75.2049 -12.7765,-13.9758 -159.041,-14.6731 -206.1345,-0.9827 -57.2977,16.6569 -126.9473,68.155 -168.4784,124.571 l -34.2249,46.4912 -4.2511,-29.6257 c -2.3381,-16.2941 -6.4925,-53.6714 -9.232,-83.0606 l -4.9808,-53.435 h -66.6584 -66.6585 v 486.8523 486.8523 h 79.163 79.163 z m 781.7439,-154.1566 2.0483,-421.3316 116.6962,-2.1903 116.6961,-2.1903 2.312,-61.3513 2.3121,-61.3513 h -119.9318 -119.9318 l 2.9855,-89.0584 c 2.5667,-76.5686 5.6973,-93.8315 22.3226,-123.0937 37.3958,-65.8203 103.0907,-84.9846 209.8813,-61.226 33.621,7.4799 63.8406,10.5997 67.1544,6.9328 9.5276,-10.5423 39.8296,-107.0293 35.7075,-113.699 -2.0444,-3.3078 -28.6878,-12.1337 -59.2076,-19.6129 -41.7248,-10.2253 -77.5819,-12.7361 -144.5429,-10.1219 -102.5939,4.0055 -148.5759,19.7597 -198.4,67.9752 -62.5695,60.5493 -84.6595,120.1155 -91.5383,246.8347 l -4.9379,90.9639 -83.1211,24.2492 -83.1211,24.2492 -2.3928,41.1338 -2.3928,41.1338 h 87.493 87.493 v 423.8086 423.8086 l 77.1839,-2.2658 77.1839,-2.2657 z m 1664.4287,112.596 c 3.9115,-297.8384 4.6901,-310.3158 22.0581,-353.5045 32.9174,-81.8552 86.8942,-135.339 167.4138,-165.8849 37.9581,-14.3998 54.3928,-16.0216 120.3307,-11.8747 l 76.3682,4.8029 9.6119,-67.7141 c 5.2867,-37.2429 7.1381,-70.1883 4.1142,-73.2121 -3.0238,-3.0239 -50.6207,-5.4979 -105.7709,-5.4979 -99.093,0 -100.8593,0.3179 -150.0825,27.0081 -50.549,27.4093 -129.6052,103.985 -146.858,142.2504 -7.9818,17.7031 -10.1719,9.1652 -17.0727,-66.5588 l -7.9163,-86.8671 -65.3094,-2.2992 -65.3095,-2.2992 v 487.4591 487.4591 l 77.1839,-2.2658 77.1839,-2.2657 z M 2334.1446,4770.4279 c 20.767,-20.767 24.1223,-29.9847 24.4881,-67.2739 0.5147,-52.4535 -19.0005,-83.3456 -61.6834,-97.6436 -37.0428,-12.4087 -80.0325,0.5837 -102.609,31.0103 -18.7898,25.3232 -21.8918,78.3549 -6.7024,114.5818 22.6614,54.0472 101.3989,64.4333 146.5067,19.3254 z M 3941.8974,4357.607 c 498.0384,-47.2277 923.9679,-358.0376 1115.7591,-814.193 103.3491,-245.805 129.201,-497.3354 80.0712,-779.0662 -27.5556,-158.0161 -121.8695,-377.3072 -223.5978,-519.8921 -65.514,-91.8261 -198.1188,-227.6935 -282.448,-289.3972 -179.9841,-131.6945 -396.3622,-223.336 -605.4216,-256.411 -444.9068,-70.3882 -928.9645,109.9008 -1217.6035,453.5007 -158.3285,188.4765 -261.942,408.0252 -304.3199,644.8296 -19.616,109.6119 -23.4458,310.1161 -7.8148,409.1227 83.1303,526.5446 431.4234,936.6945 930.3586,1095.5905 171.6651,54.6702 337.8657,72.7148 515.0167,55.916 z"
       id="path42" />
    <path
       style="opacity:1;fill:none;fill-opacity:1;stroke:none;stroke-width:7.9163"
       d="m 6111.2161,5800.2599 c -52.9521,-18.3098 -85.7183,-42.6849 -115.43,-85.8693 -50.691,-73.6769 -75.5172,-188.2993 -67.5383,-311.8247 9.9577,-154.1621 58.9732,-251.2318 150.756,-298.5562 53.2667,-27.465 171.4127,-34.6994 232.9391,-14.2636 122.7609,40.7746 183.0116,156.9682 183.2622,353.4212 0.1247,97.7681 -16.2291,183.6301 -46.1437,242.2676 -24.574,48.1689 -87.7024,102.1901 -136.2737,116.6143 -55.5673,16.5017 -151.127,15.6534 -201.5716,-1.7893 z"
       id="path43" />
    <path
       style="opacity:1;fill:none;fill-opacity:1;stroke:none;stroke-width:7.9163"
       d="m 4303.9533,5799.9082 c -111.3132,-39.616 -161.7648,-152.1193 -162.0736,-361.4118 -0.3076,-208.4537 48.2591,-308.3648 169.4652,-348.623 53.9763,-17.928 172.4744,-13.4818 216.5147,8.1239 98.6801,48.4114 148.6833,164.2548 148.6833,344.4572 0,179.6934 -50.6856,299.7918 -147.8807,350.3998 -46.4106,24.1653 -166.0746,27.9217 -224.7089,7.0539 z"
       id="path44" />
    <path
       d="m 3938.7869,2635.9554 c -35.4126,-0.3827 -70.3106,0.8875 -104.4336,3.8789 -127.3039,11.1601 -207.6751,27.7197 -330.2637,68.0508 -447.6313,147.2687 -778.6662,522.3279 -879.9218,996.9414 -24.1308,113.1078 -30.1482,325.2948 -12.6036,444.457 33.3229,226.3278 117.9617,431.5876 252.5079,612.3692 206.6485,277.6613 526.0481,466.8696 881.3828,522.1191 25.5488,3.9725 117.698,6.1521 204.7773,4.8438 125.8232,-1.8904 174.5767,-5.8878 237.4883,-19.4707 593.9167,-128.2291 1016.2121,-606.6679 1064.9199,-1206.5 37.7562,-464.9633 -191.2079,-935.6127 -583.5801,-1199.5821 -209.2642,-140.7831 -482.3852,-224.4281 -730.2734,-227.1074 z m -1027.3203,858.0879 c 3.7291,-0.2298 18.4318,17.5748 34.8281,42.5137 141.8981,215.8269 381.4371,369.2864 677.9024,434.2949 107.8394,23.6468 300.7462,28.9278 412.8769,11.3008 70.6984,-11.1137 215.358,-46.4948 223.5352,-54.6719 1.0898,-1.0898 -16.1357,-52.7365 -38.2793,-114.7695 -22.1436,-62.0331 -38.6379,-114.409 -36.6543,-116.3926 3.4377,-3.4377 589.7326,277.7841 601.3379,288.4375 3.063,2.8117 -9.5997,38.9435 -28.1387,80.291 -18.5389,41.3473 -79.8231,179.3705 -136.1875,306.7188 -56.3645,127.3484 -105.1526,231.5407 -108.418,231.5507 -3.2655,0.01 -5.9375,-1.0267 -5.9375,-2.2949 0,-3.8634 -79.5274,-222.3534 -81.7383,-224.5644 -1.1347,-1.1347 -23.3909,4.5742 -49.4589,12.6875 -92.1429,28.6781 -212.3378,42.3652 -331.9063,37.7929 -179.8433,-6.8772 -292.446,-35.2668 -460.334,-116.0605 -52.9016,-25.4581 -118.8064,-61.5375 -146.4531,-80.1758 -188.2752,-126.9278 -358.2999,-319.1855 -449.582,-508.3691 -32.9069,-68.2001 -82.857,-213.6185 -78.1875,-227.627 0.1406,-0.4218 0.4091,-0.6383 0.7949,-0.6621 z"
       style="opacity:1;fill:#29b643;fill-opacity:1;stroke-width:7.9163"
       id="path53" />
  </g>
</svg>
